<svg id="Layer_2" enable-background="new 0 0 64 64" height="512" viewBox="0 0 64 64" width="512" xmlns="http://www.w3.org/2000/svg"><path d="m9.188 43.65h12.102v17.143h-12.102z" fill="#efc36a"/><path d="m9.188 34.83h12.102v4.117h-12.102z" fill="#efc36a"/><path d="m11.606 38.947h6.151v4.703h-6.151z" fill="#db785a"/><path d="m21.291 61.293h-12.103c-.276 0-.5-.224-.5-.5v-17.143c0-.276.224-.5.5-.5h12.103c.276 0 .5.224.5.5v17.143c0 .276-.224.5-.5.5zm-11.603-1h11.103v-16.143h-11.103z" fill="#63312d"/><path d="m17.757 44.15h-6.151c-.276 0-.5-.224-.5-.5v-4.703c0-.276.224-.5.5-.5h6.151c.276 0 .5.224.5.5v4.703c0 .277-.223.5-.5.5zm-5.651-1h5.151v-3.703h-5.151z" fill="#63312d"/><path d="m21.291 39.447h-12.103c-.276 0-.5-.224-.5-.5v-4.117c0-.276.224-.5.5-.5h12.103c.276 0 .5.224.5.5v4.117c0 .277-.224.5-.5.5zm-11.603-1h11.103v-3.117h-11.103z" fill="#63312d"/><path d="m3.188 43.65h12.102v17.143h-12.102z" fill="#f9dd9d"/><path d="m3.188 43.65h2v17.143h-2z" fill="#ffeecf"/><path d="m6.721 38.947h6.151v4.703h-6.151z" fill="#f9a287"/><path d="m6.721 38.947h2v4.703h-2z" fill="#ffc8bb"/><path d="m3.188 34.83h12.102v4.117h-12.102z" fill="#f9dd9d"/><path d="m5.188 36.83h10.102v-2h-12.102v4.117h2z" fill="#ffeecf"/><path d="m15.291 61.293h-12.103c-.276 0-.5-.224-.5-.5v-17.143c0-.276.224-.5.5-.5h12.103c.276 0 .5.224.5.5v17.143c0 .276-.224.5-.5.5zm-11.603-1h11.103v-16.143h-11.103z" fill="#63312d"/><path d="m12.873 44.15h-6.152c-.276 0-.5-.224-.5-.5v-4.703c0-.276.224-.5.5-.5h6.151c.276 0 .5.224.5.5v4.703c.001.277-.223.5-.499.5zm-5.652-1h5.151v-3.703h-5.151z" fill="#63312d"/><path d="m15.291 39.447h-12.103c-.276 0-.5-.224-.5-.5v-4.117c0-.276.224-.5.5-.5h12.103c.276 0 .5.224.5.5v4.117c0 .277-.224.5-.5.5zm-11.603-1h11.103v-3.117h-11.103z" fill="#63312d"/><path d="m28.935 31.145h12.102v7.803h-12.102z" fill="#db785a"/><path d="m41.037 39.447h-12.102c-.276 0-.5-.224-.5-.5v-7.803c0-.276.224-.5.5-.5h12.102c.276 0 .5.224.5.5v7.803c0 .277-.224.5-.5.5zm-11.602-1h11.102v-6.803h-11.102z" fill="#63312d"/><path d="m31.208 27.459h7.555v3.685h-7.555z" fill="#efc36a"/><path d="m38.764 31.645h-7.555c-.276 0-.5-.224-.5-.5v-3.686c0-.276.224-.5.5-.5h7.555c.276 0 .5.224.5.5v3.686c0 .276-.224.5-.5.5zm-7.056-1h6.555v-2.686h-6.555z" fill="#63312d"/><path d="m28.935 23.344h12.102v4.115h-12.102z" fill="#db785a"/><path d="m41.037 27.959h-12.102c-.276 0-.5-.224-.5-.5v-4.115c0-.276.224-.5.5-.5h12.102c.276 0 .5.224.5.5v4.115c0 .276-.224.5-.5.5zm-11.602-1h11.102v-3.115h-11.102z" fill="#63312d"/><path d="m26.294 38.947h17.386v21.846h-17.386z" fill="#efc36a"/><path d="m43.68 61.293h-17.386c-.276 0-.5-.224-.5-.5v-21.846c0-.276.224-.5.5-.5h17.386c.276 0 .5.224.5.5v21.846c0 .276-.224.5-.5.5zm-16.886-1h16.386v-20.846h-16.386z" fill="#63312d"/><path d="m48.717 43.65h12.103v17.143h-12.103z" fill="#efc36a"/><path d="m48.717 34.83h12.103v4.117h-12.103z" fill="#efc36a"/><path d="m51.135 38.947h6.152v4.703h-6.152z" fill="#db785a"/><path d="m60.82 61.293h-12.103c-.276 0-.5-.224-.5-.5v-17.143c0-.276.224-.5.5-.5h12.103c.276 0 .5.224.5.5v17.143c0 .276-.223.5-.5.5zm-11.603-1h11.103v-16.143h-11.103z" fill="#63312d"/><path d="m57.287 44.15h-6.152c-.276 0-.5-.224-.5-.5v-4.703c0-.276.224-.5.5-.5h6.152c.276 0 .5.224.5.5v4.703c0 .277-.224.5-.5.5zm-5.652-1h5.152v-3.703h-5.152z" fill="#63312d"/><path d="m60.82 39.447h-12.103c-.276 0-.5-.224-.5-.5v-4.117c0-.276.224-.5.5-.5h12.103c.276 0 .5.224.5.5v4.117c0 .277-.223.5-.5.5zm-11.603-1h11.103v-3.117h-11.103z" fill="#63312d"/><path d="m42.717 43.65h12.103v17.143h-12.103z" fill="#f9dd9d"/><path d="m42.717 43.65h2v17.143h-2z" fill="#ffeecf"/><path d="m46.25 38.947h6.152v4.703h-6.152z" fill="#f9a287"/><path d="m46.25 38.947h2v4.703h-2z" fill="#ffc8bb"/><path d="m42.717 34.83h12.103v4.117h-12.103z" fill="#f9dd9d"/><path d="m44.717 36.83h10.103v-2h-12.103v4.117h2z" fill="#ffeecf"/><path d="m54.82 61.293h-12.103c-.276 0-.5-.224-.5-.5v-17.143c0-.276.224-.5.5-.5h12.103c.276 0 .5.224.5.5v17.143c0 .276-.223.5-.5.5zm-11.603-1h11.103v-16.143h-11.103z" fill="#63312d"/><path d="m52.402 44.15h-6.152c-.276 0-.5-.224-.5-.5v-4.703c0-.276.224-.5.5-.5h6.152c.276 0 .5.224.5.5v4.703c0 .277-.223.5-.5.5zm-5.652-1h5.152v-3.703h-5.152z" fill="#63312d"/><path d="m54.82 39.447h-12.103c-.276 0-.5-.224-.5-.5v-4.117c0-.276.224-.5.5-.5h12.103c.276 0 .5.224.5.5v4.117c0 .277-.223.5-.5.5zm-11.603-1h11.103v-3.117h-11.103z" fill="#63312d"/><path d="m32.977 14.137h-1.953l-8.075 9.207h18.103z" fill="#d1d1d1"/><path d="m32.991 14.137v-9.963c0-.553-.448-1-1-1s-1 .447-1 1v9.963z" fill="#f8f3f3"/><path d="m32.991 14.637h-2c-.276 0-.5-.224-.5-.5v-9.963c0-.827.673-1.5 1.5-1.5s1.5.673 1.5 1.5v9.963c0 .276-.223.5-.5.5zm-1.5-1h1v-9.463c0-.275-.224-.5-.5-.5s-.5.225-.5.5z" fill="#63312d"/><path d="m32.992 4.486 8.06 3.739-8.06 3.738z" fill="#f9a287"/><path d="m34.992 5.414-2-.928v7.477l2-.928z" fill="#ffc8bb"/><path d="m32.992 12.463c-.094 0-.188-.026-.269-.078-.144-.093-.231-.251-.231-.422v-7.477c0-.171.087-.329.231-.422.145-.091.324-.104.479-.031l8.06 3.738c.177.081.29.259.29.453s-.113.372-.29.453l-8.06 3.738c-.067.032-.139.048-.21.048zm.499-7.193v5.91l6.372-2.955z" fill="#63312d"/><path d="m41.052 23.844h-18.103c-.196 0-.375-.115-.456-.294s-.05-.388.08-.536l8.075-9.207c.095-.107.232-.17.376-.17h1.953c.144 0 .281.063.375.17l8.075 9.207c.129.148.16.357.079.536s-.258.294-.454.294zm-16.999-1h15.896l-7.198-8.207h-1.5z" fill="#63312d"/><path d="m31.024 14.137-8.075 9.207h12.103l-2.722-9.207z" fill="#f8f3f3"/><path d="m35.052 23.844h-12.103c-.196 0-.375-.115-.456-.294s-.05-.388.08-.536l8.075-9.207c.095-.107.232-.17.376-.17h1.306c.222 0 .417.146.479.358l2.722 9.207c.045.151.016.314-.079.44-.095.128-.243.202-.4.202zm-10.999-1h10.33l-2.426-8.207h-.706z" fill="#63312d"/><path d="m13.206 25.623h-1.952l-8.075 9.207h18.102z" fill="#d1d1d1"/><path d="m13.221 25.623v-9.963c0-.553-.448-1-1-1s-1 .447-1 1v9.963z" fill="#f8f3f3"/><path d="m13.221 26.123h-2c-.276 0-.5-.224-.5-.5v-9.963c0-.827.673-1.5 1.5-1.5s1.5.673 1.5 1.5v9.963c0 .276-.224.5-.5.5zm-1.5-1h1v-9.463c0-.275-.224-.5-.5-.5s-.5.225-.5.5z" fill="#63312d"/><path d="m13.221 15.973 8.06 3.738-8.06 3.738z" fill="#f9a287"/><path d="m15.221 16.9-2-.927v7.476l2-.928z" fill="#ffc8bb"/><path d="m13.221 23.949c-.094 0-.188-.026-.269-.078-.144-.093-.231-.251-.231-.422v-7.477c0-.171.087-.329.231-.422.144-.092.325-.104.479-.031l8.06 3.738c.177.081.29.259.29.453s-.113.372-.29.453l-8.06 3.738c-.066.033-.138.048-.21.048zm.5-7.193v5.91l6.372-2.955z" fill="#63312d"/><path d="m21.281 35.33h-18.102c-.196 0-.375-.115-.456-.294s-.05-.388.08-.536l8.075-9.207c.095-.107.232-.17.376-.17h1.953c.144 0 .281.063.376.17l8.075 9.207c.129.148.161.357.08.536s-.26.294-.457.294zm-16.999-1h15.896l-7.198-8.207h-1.5z" fill="#63312d"/><path d="m11.254 25.623-8.075 9.207h12.102l-2.721-9.207z" fill="#f8f3f3"/><path d="m15.281 35.33h-12.102c-.196 0-.375-.115-.456-.294s-.05-.388.08-.536l8.075-9.207c.095-.107.232-.17.376-.17h1.306c.222 0 .417.146.479.358l2.722 9.207c.045.151.016.314-.079.44-.095.128-.243.202-.401.202zm-10.999-1h10.33l-2.426-8.207h-.706z" fill="#63312d"/><path d="m52.745 25.623h-1.952l-8.076 9.207h18.103z" fill="#d1d1d1"/><path d="m52.76 25.623v-9.963c0-.553-.448-1-1-1-.553 0-1 .447-1 1v9.963z" fill="#f8f3f3"/><path d="m52.76 26.123h-2c-.276 0-.5-.224-.5-.5v-9.963c0-.827.673-1.5 1.5-1.5s1.5.673 1.5 1.5v9.963c0 .276-.224.5-.5.5zm-1.5-1h1v-9.463c0-.275-.225-.5-.5-.5s-.5.225-.5.5z" fill="#63312d"/><path d="m52.76 15.973 8.06 3.738-8.06 3.738z" fill="#f9a287"/><path d="m54.76 16.9-2-.927v7.476l2-.928z" fill="#ffc8bb"/><path d="m52.76 23.949c-.094 0-.188-.026-.27-.078-.144-.093-.23-.251-.23-.422v-7.477c0-.171.087-.329.23-.422.145-.092.326-.104.479-.031l8.061 3.738c.177.081.29.259.29.453s-.113.372-.29.453l-8.061 3.738c-.066.033-.138.048-.209.048zm.5-7.193v5.91l6.372-2.955z" fill="#63312d"/><path d="m60.82 35.33h-18.103c-.196 0-.374-.115-.455-.294s-.05-.389.079-.536l8.076-9.207c.095-.107.232-.17.376-.17h1.952c.144 0 .281.063.376.17l8.075 9.207c.129.148.16.357.079.536s-.258.294-.455.294zm-17-1h15.896l-7.198-8.207h-1.498z" fill="#63312d"/><path d="m50.793 25.623-8.076 9.207h12.103l-2.722-9.207z" fill="#f8f3f3"/><path d="m54.82 35.33h-12.103c-.196 0-.374-.115-.455-.294s-.05-.389.079-.536l8.076-9.207c.095-.107.232-.17.376-.17h1.305c.222 0 .417.146.479.358l2.723 9.207c.045.151.016.314-.079.44-.094.128-.243.202-.401.202zm-11-1h10.331l-2.428-8.207h-.703z" fill="#63312d"/><path d="m22.935 31.145h12.102v7.803h-12.102z" fill="#f9a287"/><path d="m22.935 31.145h2v7.803h-2z" fill="#ffc8bb"/><path d="m35.037 39.447h-12.102c-.276 0-.5-.224-.5-.5v-7.803c0-.276.224-.5.5-.5h12.102c.276 0 .5.224.5.5v7.803c0 .277-.224.5-.5.5zm-11.602-1h11.102v-6.803h-11.102z" fill="#63312d"/><path d="m25.208 27.459h7.556v3.685h-7.556z" fill="#f9dd9d"/><path d="m25.208 27.459h2v3.685h-2z" fill="#ffeecf"/><path d="m22.935 23.344h12.102v4.115h-12.102z" fill="#f9a287"/><path d="m24.935 25.344h10.102v-2h-12.102v4.115h2z" fill="#ffc8bb"/><path d="m15.256 47.799h27.461v12.994h-27.461z" fill="#f9a287"/><path d="m42.717 61.293h-27.461c-.276 0-.5-.224-.5-.5v-12.994c0-.276.224-.5.5-.5h27.461c.276 0 .5.224.5.5v12.994c0 .276-.224.5-.5.5zm-26.961-1h26.461v-11.994h-26.461z" fill="#63312d"/><path d="m32.012 38.947-3.025-5.16-3.026 5.16h-5.667v21.846h17.386v-21.846z" fill="#f9dd9d"/><path d="m29.987 35.492-1-1.705-3.026 5.16h2z" fill="#ffeecf"/><path d="m20.294 38.947h2v21.846h-2z" fill="#ffeecf"/><path d="m37.68 61.293h-17.386c-.276 0-.5-.224-.5-.5v-21.846c0-.276.224-.5.5-.5h5.38l2.881-4.913c.089-.153.254-.247.431-.247.177 0 .342.094.431.247l2.881 4.913h5.381c.276 0 .5.224.5.5v21.846c.001.276-.223.5-.499.5zm-16.886-1h16.386v-20.846h-5.167c-.177 0-.342-.094-.431-.247l-2.594-4.425-2.596 4.425c-.089.153-.254.247-.431.247h-5.167z" fill="#63312d"/><path d="m29.124 44.303c-2.289 0-4.239 1.426-5.027 3.436v13.055h10.053v-13.056c-.787-2.009-2.738-3.435-5.026-3.435z" fill="#f9a287"/><path d="m30.124 44.406c-.325-.061-.657-.104-1-.104-2.289 0-4.239 1.426-5.027 3.436v13.055h2v-13.055c.67-1.709 2.184-2.984 4.027-3.332z" fill="#ffc8bb"/><g fill="#63312d"><path d="m34.15 61.293h-10.052c-.276 0-.5-.224-.5-.5v-13.055c0-.063.012-.124.035-.183.893-2.279 3.049-3.753 5.492-3.753s4.598 1.474 5.492 3.753c.022.059.034.12.034.183v13.055c-.001.276-.224.5-.501.5zm-9.552-1h9.053v-12.458c-.762-1.846-2.528-3.032-4.526-3.032s-3.765 1.187-4.527 3.032z"/><path d="m32.764 31.645h-7.556c-.276 0-.5-.224-.5-.5v-3.686c0-.276.224-.5.5-.5h7.556c.276 0 .5.224.5.5v3.686c0 .276-.224.5-.5.5zm-7.056-1h6.556v-2.686h-6.556z"/><path d="m35.037 27.959h-12.102c-.276 0-.5-.224-.5-.5v-4.115c0-.276.224-.5.5-.5h12.102c.276 0 .5.224.5.5v4.115c0 .276-.224.5-.5.5zm-11.602-1h11.102v-3.115h-11.102z"/><path d="m7.691 7.203h2.474v1h-2.474z"/><path d="m14.277 7.203h2.474v1h-2.474z"/><path d="m11.721 3.174h1v2.473h-1z"/><path d="m11.721 9.76h1v2.475h-1z"/><path d="m9.392 4.138h1v2.474h-1z" transform="matrix(.707 -.707 .707 .707 -.904 8.566)"/><path d="m14.049 8.794h1v2.474h-1z" transform="matrix(.707 -.707 .707 .707 -2.833 13.221)"/><path d="m13.313 4.875h2.475v1h-2.475z" transform="matrix(.707 -.707 .707 .707 .461 11.863)"/><path d="m8.656 9.532h2.473v1h-2.473z" transform="matrix(.707 -.707 .707 .707 -4.196 9.934)"/><path d="m47.229 7.203h2.474v1h-2.474z"/><path d="m53.815 7.203h2.474v1h-2.474z"/><path d="m51.26 3.174h1v2.473h-1z"/><path d="m51.26 9.76h1v2.475h-1z"/><path d="m48.931 4.138h1v2.473h-1z" transform="matrix(.708 -.707 .707 .708 10.66 36.505)"/><path d="m53.588 8.794h1v2.475h-1z" transform="matrix(.707 -.707 .707 .707 8.749 41.184)"/><path d="m52.852 4.875h2.474v1h-2.474z" transform="matrix(.707 -.707 .707 .707 12.042 39.821)"/><path d="m48.195 9.532h2.473v1h-2.473z" transform="matrix(.707 -.707 .707 .707 7.384 37.892)"/></g></svg>