<?xml version="1.0" encoding="utf-8"?>
<!-- Generator: Adobe Illustrator 24.2.0, SVG Export Plug-In . SVG Version: 6.00 Build 0)  -->
<svg version="1.1" id="Layer_1" xmlns="http://www.w3.org/2000/svg" xmlns:xlink="http://www.w3.org/1999/xlink" x="0px" y="0px"
	 viewBox="0 0 512 512" style="enable-background:new 0 0 512 512;" xml:space="preserve">
<style type="text/css">
	.st0{fill:#FFFFFF;}
</style>
<g>
	<path class="st0" d="M368,512c-16.5,0-32.9-2.9-48.9-8.7c-70.6-25.6-136.1-67.4-189.5-120.8S34.4,263.6,8.7,193
		c-8.2-22.7-10.7-46.1-7.2-69.6c3.2-22,11.8-43.4,24.7-61.8c13-18.5,30.2-33.9,50-44.5C97.2,5.7,120.2,0,144.4,0
		c7.5,0,14.1,5.3,15.6,12.6l25.1,117.2c1.1,5.3-0.5,10.8-4.3,14.7l-42.9,42.9c40.5,80.5,106.2,146.2,186.6,186.6l42.9-42.9
		c3.8-3.8,9.4-5.5,14.7-4.3l117.2,25.1c7.4,1.6,12.6,8.1,12.6,15.6c0,24.3-5.7,47.2-17.1,68.3c-10.6,19.7-26,37-44.5,50
		c-18.4,12.9-39.8,21.4-61.8,24.7C381.7,511.5,374.8,512,368,512L368,512z M131.6,32.7c-32,3.5-60.4,20.3-79.2,47.2
		C31.2,110.2,26.2,147.4,38.8,182C88.1,317.8,194.2,423.9,330,473.2c34.6,12.6,71.9,7.6,102.1-13.6c26.9-18.9,43.7-47.3,47.2-79.2
		L384,359.9l-44.8,44.8c-4.8,4.8-12,6-18.1,3.2c-95.2-44.7-172.2-121.8-217-217c-2.9-6.1-1.6-13.3,3.2-18.1l44.8-44.8L131.6,32.7z"
		/>
</g>
</svg>
