<?xml version="1.0" encoding="utf-8"?>
<!-- Generator: Adobe Illustrator 24.2.0, SVG Export Plug-In . SVG Version: 6.00 Build 0)  -->
<svg version="1.1" id="Layer_1" xmlns="http://www.w3.org/2000/svg" xmlns:xlink="http://www.w3.org/1999/xlink" x="0px" y="0px"
	 viewBox="0 0 512 512" style="enable-background:new 0 0 512 512;" xml:space="preserve">
<style type="text/css">
	.st0{fill:#FFFFFF;}
</style>
<path class="st0" d="M75,451h362c41.4,0,75-33.6,75-75V136c0-41.4-33.6-75-75-75H75C33.6,61,0,94.6,0,136v240
	C0,417.4,33.6,451,75,451z M30,136c0-24.8,20.2-45,45-45h362c24.8,0,45,20.2,45,45v240c0,24.8-20.2,45-45,45H75
	c-24.8,0-45-20.2-45-45V136z"/>
<path class="st0" d="M181,155.5v203.9l180.5-103.6L181,155.5z M211,206.5l89.5,49.7L211,307.6V206.5z"/>
</svg>
